<svg width="38.000000" height="38.000000" viewBox="0 0 38 38" fill="none" xmlns="http://www.w3.org/2000/svg" xmlns:xlink="http://www.w3.org/1999/xlink">
	<desc>
			Created with Pixso.
	</desc>
	<defs>
		<clipPath id="clip45_25">
			<rect id="box-arrow-in-right" width="38.000000" height="38.000000" fill="white" fill-opacity="0"/>
		</clipPath>
	</defs>
	<g clip-path="url(#clip45_25)">
		<path id="path" d="M14.25 8.31C14.25 7.52 14.64 7.12 15.43 7.12L34.43 7.12C35.22 7.12 35.62 7.52 35.62 8.31L35.62 29.68C35.62 30.47 35.22 30.87 34.43 30.87L15.43 30.87C14.64 30.87 14.25 30.47 14.25 29.68L14.25 24.93C14.25 24.14 13.85 23.75 13.06 23.75C12.27 23.75 11.87 24.14 11.87 24.93L11.87 29.68C11.87 30.67 12.22 31.51 12.91 32.2C13.61 32.9 14.45 33.25 15.43 33.25L34.43 33.25C35.42 33.25 36.26 32.9 36.95 32.2C37.65 31.51 38 30.67 38 29.68L38 8.31C38 7.32 37.65 6.48 36.95 5.79C36.26 5.09 35.42 4.75 34.43 4.75L15.43 4.75C14.45 4.75 13.61 5.09 12.91 5.79C12.22 6.48 11.87 7.32 11.87 8.31L11.87 13.06C11.87 13.85 12.27 14.25 13.06 14.25C13.85 14.25 14.25 13.85 14.25 13.06L14.25 8.31Z" fill="#FFFFFF" fill-opacity="1.000000" fill-rule="evenodd"/>
		<path id="path" d="M28.15 19.84C28.71 19.28 28.71 18.71 28.15 18.15L21.02 11.03C20.46 10.47 19.9 10.47 19.34 11.03C18.78 11.59 18.78 12.15 19.34 12.71L24.44 17.81L3.56 17.81C2.77 17.81 2.37 18.2 2.37 19C2.37 19.79 2.77 20.18 3.56 20.18L24.44 20.18L19.34 25.28C18.78 25.84 18.78 26.4 19.34 26.96C19.9 27.52 20.46 27.52 21.02 26.96L28.15 19.84Z" fill="#FFFFFF" fill-opacity="1.000000" fill-rule="evenodd"/>
	</g>
</svg>
