<svg width="34.635498" height="24.000000" viewBox="0 0 34.6355 24" fill="none" xmlns="http://www.w3.org/2000/svg" xmlns:xlink="http://www.w3.org/1999/xlink">
	<desc>
			Created with Pixso.
	</desc>
	<defs>
		<clipPath id="clip35_8">
			<rect id="envelope" width="34.635509" height="24.000006" fill="white" fill-opacity="0"/>
		</clipPath>
	</defs>
	<g opacity="0.600000">
		<g clip-path="url(#clip35_8)">
			<path id="path" d="M0 4.02C0 2.91 0.42 1.96 1.26 1.17C2.11 0.39 3.13 0 4.32 0L30.3 0C31.5 0 32.52 0.39 33.36 1.17C34.21 1.96 34.63 2.91 34.63 4.02L34.63 20.11C34.63 21.22 34.21 22.17 33.36 22.96C32.52 23.74 31.5 24.14 30.3 24.14L4.32 24.14C3.13 24.14 2.11 23.74 1.26 22.96C0.42 22.17 0 21.22 0 20.11L0 4.02ZM4.32 2.01C2.88 2.01 2.16 2.68 2.16 4.02L2.16 4.46L17.31 12.9L32.47 4.46L32.47 4.02C32.47 2.68 31.74 2.01 30.3 2.01L4.32 2.01ZM32.47 6.8L22.27 12.48L32.47 18.31L32.47 6.8ZM32.39 20.63L20.18 13.65L17.31 15.25L14.44 13.65L2.23 20.63C2.52 21.63 3.22 22.12 4.32 22.12L30.3 22.12C31.41 22.13 32.11 21.63 32.39 20.63ZM2.16 18.31L12.35 12.48L2.16 6.8L2.16 18.31Z" fill="#FFFFFF" fill-opacity="1.000000" fill-rule="nonzero"/>
		</g>
	</g>
</svg>
