<svg width="30.000000" height="31.030029" viewBox="0 0 30 31.03" fill="none" xmlns="http://www.w3.org/2000/svg" xmlns:xlink="http://www.w3.org/1999/xlink">
	<desc>
			Created with Pixso.
	</desc>
	<defs>
		<clipPath id="clip33_4">
			<rect id="github" width="30.000000" height="31.030043" fill="white" fill-opacity="0"/>
		</clipPath>
	</defs>
	<g clip-path="url(#clip33_4)">
		<path id="path" d="M15 0C6.71 0 0 6.94 0 15.51C0 22.38 4.29 28.17 10.25 30.23C11 30.37 11.28 29.9 11.28 29.49C11.28 29.12 11.26 27.9 11.26 26.6C7.5 27.32 6.52 25.65 6.22 24.78C6.05 24.33 5.32 22.96 4.68 22.59C4.16 22.3 3.41 21.58 4.66 21.56C5.85 21.54 6.69 22.69 6.97 23.15C8.32 25.5 10.48 24.84 11.34 24.43C11.47 23.42 11.86 22.74 12.3 22.36C8.96 21.97 5.47 20.63 5.47 14.7C5.47 13.01 6.05 11.61 7.01 10.53C6.86 10.14 6.33 8.55 7.16 6.41C7.16 6.41 8.41 6.01 11.28 8C12.48 7.66 13.76 7.48 15.03 7.48C16.31 7.48 17.58 7.66 18.78 8C21.65 5.99 22.91 6.41 22.91 6.41C23.73 8.55 23.21 10.14 23.06 10.53C24.01 11.61 24.6 12.99 24.6 14.7C24.6 20.65 21.09 21.97 17.75 22.36C18.29 22.84 18.76 23.77 18.76 25.23C18.76 27.3 18.75 28.97 18.75 29.49C18.75 29.9 19.03 30.39 19.78 30.23C22.83 29.16 25.3 27.28 27.18 24.57C29.06 21.86 30 18.84 30 15.51C30 6.94 23.28 0 15 0Z" fill="#FFFFFF" fill-opacity="1.000000" fill-rule="nonzero"/>
	</g>
</svg>
