<svg width="35.654297" height="30.000000" viewBox="0 0 35.6543 30" fill="none" xmlns="http://www.w3.org/2000/svg" xmlns:xlink="http://www.w3.org/1999/xlink">
	<desc>
			Created with Pixso.
	</desc>
	<defs>
		<clipPath id="clip41_4">
			<rect id="headset" width="35.654205" height="30.000008" fill="white" fill-opacity="0"/>
		</clipPath>
	</defs>
	<g clip-path="url(#clip41_4)">
		<path id="path" d="M17.64 1.87C16.17 1.87 14.75 2.11 13.38 2.58C12.02 3.06 10.81 3.74 9.77 4.62C8.72 5.5 7.92 6.51 7.35 7.66C6.78 8.81 6.5 10 6.5 11.25L6.5 13.12L8.73 13.12C10.22 13.12 10.96 13.75 10.96 15L10.96 20.62C10.96 21.87 10.22 22.5 8.73 22.5L6.5 22.5C5.02 22.5 4.27 21.87 4.27 20.62L4.27 11.25C4.27 9.75 4.61 8.32 5.29 6.94C5.97 5.56 6.94 4.34 8.19 3.29C9.44 2.24 10.89 1.42 12.53 0.85C14.17 0.28 15.87 0 17.64 0C19.42 0 21.12 0.28 22.76 0.85C24.4 1.42 25.84 2.24 27.1 3.29C28.35 4.34 29.32 5.56 30 6.94C30.67 8.32 31.01 9.75 31.01 11.25L31.01 22.5C31.01 23.79 30.47 24.89 29.38 25.81C28.29 26.72 26.98 27.18 25.44 27.18L20.69 27.18C20.26 27.81 19.62 28.12 18.76 28.12L16.53 28.12C15.04 28.12 14.3 27.5 14.3 26.25C14.3 25 15.04 24.37 16.53 24.37L18.76 24.37C19.62 24.37 20.26 24.68 20.69 25.31L25.44 25.31C26.37 25.31 27.15 25.03 27.81 24.48C28.46 23.93 28.79 23.27 28.79 22.5L26.56 22.5C25.07 22.5 24.33 21.87 24.33 20.62L24.33 15C24.33 13.75 25.07 13.12 26.56 13.12L28.79 13.12L28.79 11.25C28.79 10 28.5 8.81 27.94 7.66C27.37 6.51 26.57 5.5 25.52 4.62C24.48 3.74 23.27 3.06 21.91 2.58C20.54 2.11 19.12 1.87 17.64 1.87Z" fill="#FFFFFF" fill-opacity="1.000000" fill-rule="nonzero"/>
	</g>
</svg>
