<svg width="30.000000" height="31.030029" viewBox="0 0 30 31.03" fill="none" xmlns="http://www.w3.org/2000/svg" xmlns:xlink="http://www.w3.org/1999/xlink">
	<desc>
			Created with Pixso.
	</desc>
	<defs>
		<clipPath id="clip27_37">
			<rect id="instagram" width="30.000000" height="31.030043" fill="white" fill-opacity="0"/>
		</clipPath>
	</defs>
	<g clip-path="url(#clip27_37)">
		<path id="path" d="M15 0C10.92 0 10.41 0.01 8.81 0.09C7.21 0.17 6.12 0.43 5.17 0.81C4.16 1.2 3.27 1.8 2.51 2.6C1.74 3.38 1.16 4.3 0.78 5.35C0.41 6.33 0.16 7.46 0.09 9.11C0.01 10.77 0 11.3 0 15.51C0 19.72 0.01 20.25 0.09 21.91C0.16 23.56 0.41 24.69 0.78 25.67C1.17 26.69 1.68 27.56 2.51 28.42C3.35 29.28 4.18 29.81 5.17 30.21C6.12 30.59 7.21 30.86 8.81 30.93C10.41 31.01 10.92 31.03 15 31.03C19.07 31.03 19.58 31.01 21.18 30.93C22.77 30.85 23.87 30.59 24.82 30.21C25.83 29.82 26.72 29.22 27.48 28.42C28.31 27.56 28.82 26.69 29.21 25.67C29.58 24.69 29.83 23.56 29.9 21.91C29.98 20.25 30 19.72 30 15.51C30 11.3 29.98 10.77 29.9 9.11C29.83 7.46 29.58 6.33 29.21 5.35C28.83 4.3 28.25 3.38 27.48 2.6C26.72 1.8 25.83 1.2 24.82 0.81C23.86 0.43 22.77 0.16 21.18 0.09C19.58 0.01 19.07 0 15 0ZM13.65 2.79L15 2.79C19 2.79 19.48 2.81 21.06 2.88C22.52 2.95 23.31 3.2 23.84 3.41C24.54 3.7 25.04 4.03 25.57 4.58C26.09 5.12 26.42 5.63 26.69 6.36C26.9 6.91 27.14 7.73 27.21 9.24C27.28 10.87 27.29 11.37 27.29 15.51C27.29 19.65 27.28 20.14 27.21 21.77C27.14 23.29 26.89 24.11 26.69 24.65C26.44 25.34 26.07 25.93 25.57 26.44C25.04 26.98 24.54 27.32 23.84 27.6C23.32 27.81 22.52 28.06 21.06 28.13C19.48 28.21 19 28.22 15 28.22C10.99 28.22 10.52 28.21 8.93 28.13C7.47 28.06 6.68 27.81 6.15 27.6C5.49 27.34 4.92 26.96 4.43 26.44C3.92 25.93 3.55 25.33 3.3 24.65C3.1 24.11 2.85 23.29 2.79 21.77C2.71 20.14 2.7 19.65 2.7 15.5C2.7 11.36 2.71 10.87 2.79 9.24C2.85 7.72 3.1 6.9 3.3 6.35C3.57 5.63 3.9 5.11 4.43 4.57C4.95 4.03 5.45 3.69 6.15 3.41C6.68 3.2 7.47 2.94 8.93 2.88C10.32 2.81 10.86 2.79 13.65 2.79ZM23 5.37C21.8 5.37 21.2 5.99 21.2 7.23C21.2 8.47 21.8 9.09 23 9.09C24.2 9.09 24.8 8.47 24.8 7.23C24.8 5.99 24.2 5.37 23 5.37ZM15 7.54C13.97 7.53 12.97 7.72 12.01 8.11C11.05 8.51 10.21 9.08 9.47 9.83C8.74 10.58 8.17 11.45 7.77 12.43C7.37 13.42 7.17 14.44 7.17 15.51C7.17 16.58 7.37 17.6 7.77 18.59C8.17 19.57 8.74 20.44 9.47 21.19C10.21 21.94 11.05 22.51 12.01 22.91C12.97 23.31 13.97 23.5 15 23.48C17.1 23.45 18.89 22.65 20.37 21.1C21.84 19.55 22.58 17.69 22.58 15.51C22.58 13.33 21.84 11.47 20.37 9.92C18.89 8.37 17.1 7.58 15 7.54ZM15 10.34C16.38 10.34 17.56 10.84 18.53 11.85C19.51 12.86 20 14.08 20 15.51C20 16.94 19.51 18.16 18.53 19.17C17.56 20.18 16.38 20.68 15 20.68C13.62 20.68 12.44 20.18 11.46 19.17C10.48 18.16 10 16.94 10 15.51C10 14.08 10.48 12.86 11.46 11.85C12.44 10.84 13.62 10.34 15 10.34Z" fill="#FFFFFF" fill-opacity="1.000000" fill-rule="nonzero"/>
	</g>
</svg>
