<svg width="30.000000" height="31.030029" viewBox="0 0 30 31.03" fill="none" xmlns="http://www.w3.org/2000/svg" xmlns:xlink="http://www.w3.org/1999/xlink">
	<desc>
			Created with Pixso.
	</desc>
	<defs>
		<clipPath id="clip27_39">
			<rect id="linkedin" width="30.000000" height="31.030043" fill="white" fill-opacity="0"/>
		</clipPath>
	</defs>
	<g clip-path="url(#clip27_39)">
		<path id="path" d="M0 2.22C0 0.99 0.98 0 2.2 0L27.79 0C29.01 0 30 0.99 30 2.22L30 28.8C30 30.03 29.01 31.03 27.79 31.03L2.2 31.03C0.98 31.03 0 30.03 0 28.8L0 2.22ZM9.26 25.97L9.26 11.96L4.76 11.96L4.76 25.97L9.26 25.97ZM7.01 10.04C8.58 10.04 9.56 8.97 9.56 7.62C9.53 6.25 8.58 5.2 7.04 5.2C5.5 5.2 4.5 6.25 4.5 7.62C4.5 8.97 5.5 10.04 7.01 10.04ZM16.22 25.97L16.22 18.15C16.22 17.73 16.25 17.31 16.37 17.01C16.69 16.17 17.43 15.31 18.68 15.31C20.31 15.31 20.96 16.59 20.96 18.48L20.96 25.97L25.46 25.97L25.46 17.93C25.46 13.63 23.24 11.63 20.28 11.63C17.89 11.63 16.82 12.99 16.22 13.94L16.22 11.96L11.72 11.96C11.77 13.27 11.72 25.97 11.72 25.97L16.22 25.97Z" fill="#FFFFFF" fill-opacity="1.000000" fill-rule="nonzero"/>
	</g>
</svg>
