<svg width="30.560791" height="37.344360" viewBox="0 0 30.5608 37.3444" fill="none" xmlns="http://www.w3.org/2000/svg" xmlns:xlink="http://www.w3.org/1999/xlink">
	<desc>
			Created with Pixso.
	</desc>
	<defs>
		<clipPath id="clip41_7">
			<rect id="geo-alt" width="30.560747" height="37.344410" fill="white" fill-opacity="0"/>
		</clipPath>
	</defs>
	<g clip-path="url(#clip41_7)">
		<path id="path" d="M23.23 20.86C22.23 23.34 20.88 25.81 19.49 28.03C18.17 30.12 16.77 32.12 15.28 34.03C13.78 32.12 12.38 30.12 11.06 28.03C9.68 25.81 8.32 23.34 7.32 20.86C6.31 18.36 5.73 16.01 5.73 14C5.73 12.45 5.97 10.96 6.45 9.53C6.94 8.1 7.63 6.84 8.52 5.75C9.42 4.65 10.45 3.81 11.62 3.22C12.79 2.63 14.01 2.33 15.28 2.33C16.54 2.33 17.76 2.63 18.93 3.22C20.1 3.81 21.13 4.65 22.03 5.75C22.92 6.84 23.61 8.1 24.1 9.53C24.58 10.96 24.83 12.45 24.83 14C24.83 16.01 24.24 18.36 23.23 20.86ZM15.28 37.34C15.28 37.34 26.74 24.07 26.74 14C26.74 12.14 26.45 10.36 25.86 8.64C25.28 6.92 24.45 5.41 23.38 4.1C22.3 2.78 21.07 1.77 19.66 1.06C18.26 0.35 16.79 0 15.28 0C13.76 0 12.29 0.35 10.89 1.06C9.49 1.77 8.25 2.78 7.17 4.1C6.1 5.41 5.27 6.92 4.69 8.64C4.11 10.36 3.82 12.14 3.82 14C3.82 24.07 15.28 37.34 15.28 37.34Z" fill="#FFFFFF" fill-opacity="1.000000" fill-rule="nonzero"/>
		<path id="path" d="M15.28 18.67C14.22 18.67 13.32 18.21 12.57 17.3C11.83 16.39 11.46 15.29 11.46 14C11.46 12.71 11.83 11.61 12.57 10.7C13.32 9.79 14.22 9.33 15.28 9.33C16.33 9.33 17.23 9.79 17.98 10.7C18.72 11.61 19.1 12.71 19.1 14C19.1 15.29 18.72 16.39 17.98 17.3C17.23 18.21 16.33 18.67 15.28 18.67ZM15.28 21C16.86 21 18.21 20.32 19.33 18.95C20.45 17.58 21.01 15.93 21.01 14C21.01 12.07 20.45 10.42 19.33 9.05C18.21 7.68 16.86 7 15.28 7C13.69 7 12.34 7.68 11.22 9.05C10.1 10.42 9.55 12.07 9.55 14C9.55 15.93 10.1 17.58 11.22 18.95C12.34 20.32 13.69 21 15.28 21Z" fill="#FFFFFF" fill-opacity="1.000000" fill-rule="nonzero"/>
	</g>
</svg>
