<svg width="30.000000" height="31.030029" viewBox="0 0 30 31.03" fill="none" xmlns="http://www.w3.org/2000/svg" xmlns:xlink="http://www.w3.org/1999/xlink">
	<desc>
			Created with Pixso.
	</desc>
	<defs>
		<clipPath id="clip27_43">
			<rect id="whatsapp" width="30.000000" height="31.030043" fill="white" fill-opacity="0"/>
		</clipPath>
	</defs>
	<g clip-path="url(#clip27_43)">
		<path id="path" d="M25.5 4.51C22.6 1.48 19.1 -0.02 14.98 0C6.8 0 0.12 6.9 0.12 15.37C0.12 18.08 0.8 20.72 2.1 23.06L0 31.03L7.88 28.89C10.09 30.14 12.46 30.76 14.98 30.76C23.17 30.76 29.85 23.86 29.86 15.38C29.86 11.13 28.41 7.5 25.5 4.51ZM14.98 28.16C12.73 28.15 10.63 27.56 8.69 26.37L8.24 26.09L3.57 27.36L4.81 22.64L4.52 22.16C3.26 20.08 2.63 17.81 2.63 15.36C2.63 8.33 8.18 2.59 14.99 2.59C18.41 2.58 21.32 3.83 23.73 6.33C26.15 8.83 27.35 11.84 27.34 15.37C27.34 22.43 21.79 28.16 14.98 28.16ZM21.76 18.59C21.39 18.4 19.57 17.47 19.23 17.34C18.88 17.21 18.63 17.14 18.39 17.53C18.14 17.91 17.43 18.78 17.21 19.03C17 19.29 16.78 19.32 16.41 19.13C16.04 18.93 14.84 18.53 13.42 17.22C12.32 16.2 11.58 14.94 11.36 14.56C11.14 14.17 11.34 13.97 11.52 13.77C11.68 13.6 11.89 13.32 12.08 13.1C12.26 12.88 12.33 12.72 12.45 12.46C12.57 12.2 12.51 11.98 12.42 11.79C12.33 11.6 11.58 9.7 11.27 8.94C10.97 8.18 10.67 8.29 10.44 8.28C10.22 8.27 9.97 8.27 9.72 8.27C9.33 8.28 9 8.44 8.73 8.75C8.39 9.13 7.44 10.06 7.44 11.95C7.44 13.85 8.77 15.67 8.96 15.93C9.14 16.18 11.57 20.06 15.3 21.73C16.18 22.13 16.87 22.36 17.42 22.54C18.31 22.84 19.11 22.79 19.75 22.7C20.46 22.58 21.95 21.76 22.26 20.87C22.57 19.97 22.57 19.2 22.47 19.04C22.38 18.87 22.13 18.78 21.76 18.59Z" fill="#FFFFFF" fill-opacity="1.000000" fill-rule="nonzero"/>
	</g>
</svg>
